<svg width="21" height="17" viewBox="0 0 21 17" fill="none" xmlns="http://www.w3.org/2000/svg">
<path d="M10.666 2.33203H9.38672V3.64554H10.666V2.33203Z" fill="black"/>
<path d="M6.51365 2.33203H5.23438V3.64554H6.51365V2.33203Z" fill="black"/>
<path d="M14.8183 2.33203H13.5391V3.64554H14.8183V2.33203Z" fill="black"/>
<path d="M18.4133 2.33203H17.6948V3.64554H18.4133C18.6186 3.64554 18.7855 3.81249 18.7855 4.01771V15.3139C18.7855 15.5191 18.6186 15.6861 18.4133 15.6861H1.68567C1.48046 15.6861 1.31351 15.5191 1.31351 15.3139V4.01771C1.31351 3.81249 1.48046 3.64554 1.68567 3.64554H2.36187V2.33203H1.68567C0.756189 2.33203 0 3.08822 0 4.01771V15.3139C0 16.2434 0.756189 16.9996 1.68567 16.9996H18.4133C19.3428 16.9996 20.099 16.2434 20.099 15.3139V4.01771C20.099 3.08822 19.3428 2.33203 18.4133 2.33203Z" fill="black"/>
<path d="M12.1042 4.48972C12.4141 4.48972 12.6654 4.23844 12.6654 3.9285V0.56122C12.6654 0.251275 12.4141 0 12.1042 0C11.7942 0 11.543 0.251275 11.543 0.56122V3.9285C11.543 4.23844 11.7942 4.48972 12.1042 4.48972Z" fill="black"/>
<path d="M7.95184 4.48972C8.26179 4.48972 8.51307 4.23844 8.51307 3.9285V0.56122C8.51307 0.251275 8.26179 0 7.95184 0C7.6419 0 7.39062 0.251275 7.39062 0.56122V3.9285C7.39062 4.23844 7.6419 4.48972 7.95184 4.48972Z" fill="black"/>
<path d="M3.7995 4.48972C4.10945 4.48972 4.36072 4.23844 4.36072 3.9285V0.56122C4.36072 0.251275 4.10945 0 3.7995 0C3.48956 0 3.23828 0.251275 3.23828 0.56122V3.9285C3.23828 4.23844 3.48956 4.48972 3.7995 4.48972Z" fill="black"/>
<path d="M16.2565 4.48972C16.5665 4.48972 16.8178 4.23844 16.8178 3.9285V0.56122C16.8178 0.251275 16.5665 0 16.2565 0C15.9466 0 15.6953 0.251275 15.6953 0.56122V3.9285C15.6953 4.23844 15.9466 4.48972 16.2565 4.48972Z" fill="black"/>
<path d="M5.91502 9.79344C5.65853 10.0499 5.65853 10.4657 5.91502 10.7222L8.05661 12.8638C8.18481 12.992 8.35285 13.0562 8.52103 13.0562C8.68684 13.0562 8.85278 12.9938 8.98049 12.8687L14.1176 7.83894C14.3768 7.58521 14.3812 7.16939 14.1274 6.9102C13.8737 6.651 13.4579 6.64662 13.1987 6.90039L8.52589 11.4755L6.8438 9.79344C6.58736 9.53691 6.17151 9.53691 5.91502 9.79344Z" fill="black"/>
</svg>
