<svg width="28" height="23" viewBox="0 0 28 23" fill="none" xmlns="http://www.w3.org/2000/svg">
<path d="M4.31008 22.37C4.11427 22.37 3.91663 22.3273 3.73053 22.2398C3.22548 22.0023 2.92027 21.489 2.95286 20.9318L3.12793 17.9417H1.78636C0.801359 17.9417 0 17.1404 0 16.1554V6.41917C0 5.43412 0.801359 4.63281 1.78636 4.63281H17.0037C17.9888 4.63281 18.7901 5.43417 18.7901 6.41917V16.1554C18.7901 17.1404 17.9887 17.9417 17.0037 17.9417H15.3207C14.9117 17.9417 14.5801 17.6102 14.5801 17.2011C14.5801 16.7921 14.9117 16.4605 15.3207 16.4605H17.0038C17.172 16.4605 17.3089 16.3236 17.3089 16.1553V6.41917C17.3089 6.25091 17.1721 6.11401 17.0038 6.11401H1.78636C1.61816 6.11401 1.4812 6.25086 1.4812 6.41917V16.1554C1.4812 16.3236 1.61805 16.4605 1.78636 16.4605H3.9132C4.11711 16.4605 4.31201 16.5446 4.45202 16.693C4.59192 16.8414 4.6645 17.0409 4.6526 17.2445L4.44966 20.7102L8.79436 16.6595C8.93153 16.5316 9.11196 16.4605 9.29941 16.4605H11.9075C12.3165 16.4605 12.6481 16.7921 12.6481 17.2012C12.6481 17.6102 12.3165 17.9418 11.9075 17.9418H9.59106L5.23376 22.0042C4.97609 22.2445 4.64568 22.37 4.31008 22.37Z" fill="white"/>
<path d="M23.13 17.7374C22.7891 17.7374 22.4619 17.6074 22.2086 17.3713L17.8094 13.2699C17.5172 13.1708 17.3068 12.8941 17.3068 12.5683V6.41907C17.3068 6.25087 17.1699 6.11391 17.0016 6.11391H9.39297C8.98393 6.11391 8.65234 5.78233 8.65234 5.37328V1.78636C8.65234 0.801305 9.4537 0 10.4387 0H25.6561C26.6411 0 27.4424 0.801359 27.4424 1.78636V11.5226C27.4424 12.5076 26.6411 13.3089 25.6561 13.3089H24.3144L24.4895 16.299C24.5116 16.6771 24.3826 17.0351 24.126 17.3072C23.8682 17.5806 23.5051 17.7374 23.13 17.7374ZM18.7881 12.1571L22.9928 16.0772L22.7899 12.6116C22.778 12.408 22.8505 12.2086 22.9904 12.0602C23.1304 11.9118 23.3253 11.8277 23.5293 11.8277H25.6561C25.8243 11.8277 25.9613 11.6908 25.9613 11.5225V1.78636C25.9613 1.61816 25.8244 1.4812 25.6561 1.4812H10.4387C10.2704 1.4812 10.1335 1.61805 10.1335 1.78636V4.63271H17.0016C17.9866 4.63271 18.788 5.43407 18.788 6.41907V12.1571H18.7881Z" fill="white"/>
<path d="M13.7218 10.3504H4.83438C4.42534 10.3504 4.09375 10.0188 4.09375 9.60977C4.09375 9.20073 4.42534 8.86914 4.83438 8.86914H13.7218C14.1309 8.86914 14.4625 9.20073 14.4625 9.60977C14.4625 10.0188 14.1309 10.3504 13.7218 10.3504Z" fill="white"/>
<path d="M12.5484 14.1473H6.00625C5.59721 14.1473 5.26562 13.8157 5.26562 13.4066C5.26562 12.9976 5.59721 12.666 6.00625 12.666H12.5484C12.9574 12.666 13.289 12.9976 13.289 13.4066C13.289 13.8157 12.9574 14.1473 12.5484 14.1473Z" fill="white"/>
</svg>
