<svg width="30" height="30" viewBox="0 0 30 30" fill="none" xmlns="http://www.w3.org/2000/svg">
<path d="M25.6066 4.39342C22.7735 1.56023 19.0067 0 15 0C10.9933 0 7.22654 1.56023 4.39336 4.39342C1.56018 7.2266 0 10.9934 0 15C0 19.0066 1.56023 22.7735 4.39336 25.6066C7.22648 28.4396 10.9933 30 15 30C19.0067 30 22.7735 28.4398 25.6066 25.6066C28.4398 22.7734 30 19.0066 30 15C30 10.9934 28.4398 7.22654 25.6066 4.39342ZM24.2232 24.2231C21.7596 26.6867 18.484 28.0435 15 28.0435C11.516 28.0435 8.24051 26.6867 5.77682 24.2231C3.3133 21.7596 1.9565 18.484 1.9565 15C1.9565 11.516 3.3133 8.24051 5.77682 5.77688C8.24045 3.3133 11.516 1.9565 15 1.9565C18.484 1.9565 21.7596 3.3133 24.2232 5.77688C26.6867 8.24045 28.0435 11.516 28.0435 15C28.0435 18.484 26.6867 21.7595 24.2232 24.2231Z" fill="#2B7A78"/>
<path d="M14.9971 3.91406C8.88377 3.91406 3.91016 8.88768 3.91016 15.001C3.91016 21.1143 8.88377 26.0879 14.9971 26.0879C21.1104 26.0879 26.084 21.1143 26.084 15.001C26.084 8.88768 21.1104 3.91406 14.9971 3.91406ZM15.9754 24.0789V22.8321C15.9754 22.8304 15.9755 22.8288 15.9755 22.8271C15.9755 22.2868 15.5374 21.8488 14.9971 21.8488C14.997 21.8488 14.997 21.8488 14.997 21.8488C14.9969 21.8488 14.9969 21.8488 14.9969 21.8488C14.4566 21.8488 14.0189 22.2868 14.0189 22.8271V24.0789C9.77973 23.6242 6.38486 20.2184 5.92139 15.9793H7.18994C7.73018 15.9793 8.16822 15.5508 8.16822 15.0106C8.16822 14.7364 8.05508 14.4937 7.87332 14.316C7.69549 14.1325 7.44682 14.0107 7.17107 14.0107C7.1051 14.0107 7.04064 14.0227 6.97836 14.0227H5.91699C6.36412 9.78363 9.77973 6.37922 14.0189 5.92318V7.21336C14.0189 7.75359 14.4569 8.19164 14.9971 8.19164C15.5374 8.19164 15.9754 7.75365 15.9754 7.21336V7.17996C15.9754 7.17826 15.9757 7.17662 15.9757 7.17492C15.9757 7.17322 15.9754 7.17158 15.9754 7.16988V5.92307C20.2146 6.37893 23.6302 9.78363 24.0773 14.0227H23.016C22.9537 14.0227 22.8893 14.0131 22.8233 14.0131C22.549 14.0131 22.3013 14.1312 22.1237 14.313C21.9401 14.4909 21.8255 14.7324 21.8255 15.0082C21.8255 15.5484 22.2635 15.9793 22.8038 15.9793H24.0729C23.6094 20.2184 20.2145 23.6244 15.9754 24.0789Z" fill="#2B7A78"/>
<path d="M19.1928 10.8436C18.8108 10.4615 18.1913 10.4615 17.8093 10.8436L15.0162 13.6367L11.6231 10.2436C11.2411 9.86152 10.6217 9.86152 10.2396 10.2436C9.85762 10.6256 9.85762 11.245 10.2396 11.627L14.3246 15.7119C14.5156 15.9029 14.766 15.9985 15.0163 15.9985C15.2666 15.9985 15.517 15.9029 15.708 15.7119L19.1928 12.227C19.5748 11.845 19.5748 11.2256 19.1928 10.8436Z" fill="#2B7A78"/>
</svg>
