<svg width="230" height="48" viewBox="0 0 230 48" fill="none" xmlns="http://www.w3.org/2000/svg">
<path d="M54.803 46.0466C54.1298 45.4199 53.8066 44.657 53.8066 43.7851V16.8112C53.8066 12.37 55.5031 8.55555 58.8692 5.36773L58.8961 5.34048C62.2891 2.1799 66.3553 0.599609 71.0947 0.599609C72.0372 0.599609 72.8451 0.899319 73.5183 1.52599C74.1915 2.15265 74.5416 2.91555 74.5416 3.78744C74.5416 4.65932 74.1915 5.44946 73.5183 6.07613C72.8451 6.7028 72.0372 7.02975 71.0947 7.02975C68.2403 7.02975 65.7629 7.98338 63.7433 9.89062C61.6967 11.7979 60.6734 14.1138 60.6734 16.784V26.5382H71.0947C72.0372 26.5382 72.8451 26.8651 73.5183 27.4918C74.1915 28.1185 74.5416 28.8813 74.5416 29.7805C74.5416 30.6796 74.1915 31.4425 73.5183 32.0692C72.8451 32.6958 72.0372 33.0228 71.0947 33.0228H60.6734V43.8124C60.6734 44.7115 60.3503 45.4471 59.6771 46.0738C59.0038 46.7005 58.196 47.0002 57.2535 47.0002C56.2841 47.0002 55.4762 46.6732 54.803 46.0466Z" fill="#3FB3B0"/>
<path d="M85.0433 41.9598C81.7311 38.6085 80.0615 34.5488 80.0615 29.8351C80.0615 25.1215 81.7042 21.0891 85.0164 17.7105L85.0433 17.6833C88.3824 14.332 92.3678 12.6699 97.0265 12.6699C101.712 12.6699 105.697 14.3592 109.01 17.7105C112.322 21.0618 113.991 25.1215 113.991 29.8351C113.991 34.576 112.322 38.6085 109.01 41.9598C105.697 45.3111 101.685 47.0004 97.0265 47.0004C92.3409 47.0004 88.3555 45.3111 85.0433 41.9598ZM104.243 37.1099C106.236 35.0937 107.232 32.6688 107.232 29.8079C107.232 26.9743 106.236 24.5221 104.243 22.5059C102.251 20.4624 99.854 19.4543 97.0265 19.4543C94.2259 19.4543 91.8023 20.4624 89.8096 22.5059C87.79 24.5493 86.7936 26.9743 86.7936 29.8079C86.7936 32.6415 87.79 35.0937 89.8096 37.1099C91.8293 39.1262 94.2259 40.1343 97.0265 40.1343C99.827 40.1343 102.251 39.1262 104.243 37.1099Z" fill="#3FB3B0"/>
<path d="M120.643 45.9921C119.97 45.311 119.646 44.5208 119.646 43.5672V16.0211C119.646 15.0675 119.97 14.2774 120.643 13.6234C121.316 12.9695 122.097 12.6426 123.039 12.6426C124.413 12.6426 125.436 13.3237 126.109 14.6588C128.398 13.3237 133.919 12.6426 136.692 12.6426C137.635 12.6426 138.416 12.9695 139.089 13.6234C139.762 14.2774 140.085 15.0948 140.085 16.0211C140.085 16.9475 139.762 18.0646 139.089 18.7458C138.416 19.4269 137.042 19.7539 136.1 19.7539C133.999 19.7539 131.307 21.3069 129.852 22.5875C128.56 23.7046 126.379 25.5846 126.406 28.9359V43.5945C126.406 44.5481 126.082 45.3382 125.409 46.0194C124.736 46.7005 123.955 47.0275 123.013 47.0275C122.124 47.0003 121.316 46.6461 120.643 45.9921Z" fill="#3FB3B0"/>
<path d="M185.433 45.9916C184.84 45.3376 184.544 44.5202 184.544 43.5939V25.5295C184.544 24.031 183.952 22.7504 182.767 21.6605C181.447 20.4072 179.805 19.7533 177.893 19.7533C175.981 19.7533 174.365 20.38 173.046 21.6605C171.861 22.7504 171.268 24.0582 171.268 25.5295V43.5939C171.268 44.5202 170.972 45.3104 170.38 45.9916C169.787 46.6455 169.06 46.9724 168.225 46.9724C167.391 46.9724 166.664 46.6455 166.071 45.9916C165.479 45.3376 165.182 44.5202 165.182 43.5939V25.5295C165.182 24.031 164.59 22.7504 163.405 21.6605C162.086 20.4072 160.47 19.7533 158.558 19.7533C156.646 19.7533 155.03 20.38 153.684 21.6605C152.499 22.7504 151.907 24.0582 151.907 25.5295V43.5939C151.907 44.5202 151.61 45.3104 151.018 45.9916C150.426 46.6455 149.699 46.9724 148.837 46.9724C148.002 46.9724 147.275 46.6455 146.683 45.9916C146.09 45.3376 145.794 44.5202 145.794 43.5939V16.3747C145.794 15.4484 146.09 14.6582 146.683 14.0043C147.275 13.3504 148.002 13.0234 148.837 13.0234C150.103 13.0234 151.018 13.6774 151.637 15.0124C153.711 13.6774 156 13.0234 158.531 13.0234C162.436 13.0234 165.667 14.4947 168.198 17.4101C170.757 14.4947 173.961 13.0234 177.866 13.0234C181.286 13.0234 184.221 14.195 186.698 16.5382C189.31 18.9904 190.603 22.0147 190.603 25.5568V43.5939C190.603 44.5202 190.307 45.3104 189.714 45.9916C189.122 46.6455 188.395 46.9724 187.533 46.9724C186.752 46.9997 186.025 46.6455 185.433 45.9916Z" fill="#3FB3B0"/>
<path d="M224.399 46.0187C223.752 45.3648 223.429 44.5746 223.429 43.5938C220.521 45.8552 217.209 46.9996 213.466 46.9996C208.942 46.9996 205.037 45.3648 201.806 42.0952C198.574 38.8257 196.932 34.8749 196.932 30.2703C196.932 25.6929 198.547 21.7422 201.806 18.4726V18.4454C205.037 15.1758 208.942 13.541 213.466 13.541C217.209 13.541 220.548 14.6581 223.429 16.8923C223.429 15.9387 223.752 15.1213 224.399 14.4946C225.045 13.8407 225.826 13.541 226.715 13.541C227.603 13.541 228.384 13.868 229.03 14.4946C229.677 15.1486 230 15.9114 230 16.8378V43.6483C230 44.5746 229.677 45.3648 229.03 45.9915C228.384 46.6454 227.603 46.9723 226.715 46.9723C225.826 46.9723 225.018 46.6726 224.399 46.0187ZM220.494 37.3816C222.325 35.5016 223.295 33.1857 223.429 30.4338C223.429 27.5457 222.46 25.0935 220.494 23.1317C218.528 21.1428 216.186 20.1619 213.439 20.1619C210.692 20.1619 208.349 21.1428 206.41 23.1317C204.472 25.1207 203.502 27.4912 203.502 30.2703C203.502 33.0494 204.472 35.4199 206.41 37.3816C208.349 39.3433 210.692 40.3242 213.439 40.3242C216.186 40.3242 218.528 39.3433 220.494 37.3816Z" fill="#3FB3B0"/>
<path d="M44.7312 7.33015C46.6646 7.33015 48.2319 5.74433 48.2319 3.78812C48.2319 1.83191 46.6646 0.246094 44.7312 0.246094C42.7978 0.246094 41.2305 1.83191 41.2305 3.78812C41.2305 5.74433 42.7978 7.33015 44.7312 7.33015Z" fill="#3FB3B0"/>
<path d="M45.0546 47.0001H44.3545C42.5503 47.0001 41.123 45.5288 41.123 43.7305V15.8575C41.123 14.0319 42.5772 12.5879 44.3545 12.5879H45.0546C46.8588 12.5879 48.286 14.0592 48.286 15.8575V43.7033C48.286 45.5288 46.8319 47.0001 45.0546 47.0001Z" fill="#3FB3B0"/>
<path d="M20.5766 31.2517C29.086 31.2517 36.0066 24.2222 36.0066 15.6123C36.0066 7.00246 29.086 0.0273874 20.5766 0.0273874C19.9842 0.0273874 19.4187 -0.0815981 18.8263 0.190866H4.68879C4.55415 0.190866 4.44643 0.136373 4.31179 0.136373C4.25793 0.136373 4.20408 0.109127 4.15022 0.136373C4.09636 0.136373 4.01558 0.136373 3.96172 0.136373C3.90786 0.136373 3.82708 0.163619 3.77322 0.163619C3.71936 0.190866 3.66551 0.190866 3.61165 0.190866C3.55779 0.218112 3.47701 0.245358 3.42315 0.272605C3.36929 0.299851 3.31544 0.299851 3.26158 0.327098C3.20772 0.354344 3.15387 0.38159 3.10001 0.408837C3.04615 0.436083 2.99229 0.463329 2.93844 0.490576C2.88458 0.517822 2.83072 0.545069 2.77687 0.572315C2.72301 0.599561 2.66915 0.626808 2.6153 0.6813C2.56144 0.708547 2.50758 0.76304 2.48065 0.790286C2.4268 0.817532 2.37294 0.844779 2.34601 0.899271C2.15751 1.06275 1.96901 1.22623 1.83437 1.41695C1.78051 1.4442 1.75358 1.49869 1.72665 1.55318C1.6728 1.60768 1.64587 1.66217 1.61894 1.71666C1.56508 1.77116 1.53815 1.82565 1.51123 1.88014C1.4843 1.93463 1.45737 1.96188 1.43044 2.01637C1.40351 2.07087 1.37658 2.12536 1.34966 2.17985C1.32273 2.23434 1.2958 2.28884 1.26887 2.34333C1.24194 2.39782 1.21501 2.47956 1.21501 2.53405C1.18808 2.58855 1.16116 2.64304 1.13423 2.69753C1.1073 2.75202 1.1073 2.80652 1.08037 2.86101C1.05344 2.9155 1.05344 2.99724 1.02651 3.05174C1.02651 3.10623 0.999585 3.18797 0.999585 3.24246C0.999585 3.29695 0.972656 3.3242 0.972656 3.37869C0.972656 3.51492 1.02651 3.70565 1.02651 3.70565H1.08037V3.76014C1.08037 3.89637 1.02651 4.00536 1.02651 4.14159C1.02651 4.19608 0.999585 4.25058 1.02651 4.30507C1.02651 4.35956 1.02651 4.4413 1.05344 4.49579C1.05344 4.55029 1.08037 4.63203 1.08037 4.68652C1.1073 4.74101 1.1073 4.7955 1.1073 4.85C1.13423 4.90449 1.13423 4.95898 1.16116 5.04072C1.21501 5.09521 1.24194 5.17695 1.26887 5.23145C1.2958 5.28594 1.32273 5.34043 1.34966 5.39492C1.37658 5.44942 1.40351 5.50391 1.43044 5.5584C1.45737 5.61289 1.4843 5.66739 1.51123 5.72188C1.53815 5.77637 1.56508 5.83087 1.61894 5.88536C1.64587 5.93985 1.69973 5.99434 1.72665 6.04884C1.75358 6.10333 1.78051 6.13058 1.83437 6.18507C1.91515 6.29405 1.99594 6.37579 2.07672 6.45753L15.8372 20.3804C17.2913 21.8517 19.6341 21.8517 21.0613 20.3804C22.5155 18.9091 22.5155 16.5114 21.0613 15.0674L13.6829 7.54739H19.0955C19.1494 7.54739 19.2033 7.54739 19.2302 7.54739H21.1152C21.2767 7.54739 21.4383 7.52014 21.5999 7.52014C25.5584 8.03782 28.6013 11.4164 28.6013 15.5578C28.6013 19.672 25.5853 23.1051 21.6537 23.65C21.5999 23.65 21.5191 23.6227 21.4652 23.6227H5.03886H5.01193C4.93115 23.6227 4.87729 23.6227 4.7965 23.6227C4.74265 23.6227 4.68879 23.6227 4.63493 23.6227C4.58108 23.6227 4.50029 23.65 4.44643 23.65C4.39258 23.65 4.33872 23.6772 4.28486 23.6772C4.23101 23.6772 4.17715 23.7045 4.09636 23.7317C4.04251 23.759 3.98865 23.759 3.93479 23.7862C3.88093 23.8135 3.82708 23.8135 3.77322 23.8407C3.71936 23.868 3.63858 23.8952 3.58472 23.9225C3.50394 23.9497 3.47701 23.977 3.42315 23.977C3.36929 24.0042 3.28851 24.0314 3.23465 24.0587C3.18079 24.0859 3.15387 24.1132 3.10001 24.1404C3.04615 24.1677 2.96537 24.2222 2.91151 24.2494C2.88458 24.2767 2.83072 24.3039 2.80379 24.3312C2.74994 24.3856 2.66915 24.4129 2.6153 24.4674C2.6153 24.4946 2.6153 24.5219 2.6153 24.5219C2.58837 24.5491 2.56144 24.5764 2.53451 24.6036C2.48065 24.6581 2.4268 24.7126 2.37294 24.7399C2.31908 24.7943 2.29215 24.8216 2.26522 24.8761C2.2383 24.9306 2.18444 24.9578 2.15751 25.0123C2.07673 25.0668 2.0498 25.1213 2.02287 25.1758C1.99594 25.2303 1.96901 25.2575 1.91515 25.312C1.88823 25.3665 1.8613 25.421 1.80744 25.4755C1.78051 25.53 1.75358 25.5845 1.72665 25.639C1.69973 25.6935 1.6728 25.748 1.64587 25.8025C1.61894 25.857 1.59201 25.9114 1.56508 25.9659C1.53815 26.0204 1.53815 26.0749 1.51123 26.1294C1.4843 26.1839 1.45737 26.2656 1.45737 26.3201C1.43044 26.3746 1.43044 26.4291 1.43044 26.4836C1.40351 26.5381 1.40351 26.6199 1.37658 26.6743C1.37658 26.7288 1.34966 26.7833 1.34966 26.8378C1.34966 26.8923 1.32273 26.9741 1.32273 27.0285C1.32273 27.083 1.32273 27.1648 1.32273 27.2193C1.32273 27.2738 1.32273 27.301 1.32273 27.3555V27.3827C1.32273 27.4645 1.32273 27.519 1.32273 27.6007C1.32273 27.6552 1.32273 27.7097 1.32273 27.7642C1.32273 27.8459 1.34966 27.9004 1.34966 27.9822C1.34966 28.0367 1.37658 28.0912 1.37658 28.1456C1.37658 28.2001 1.40351 28.2819 1.43044 28.3364C1.45737 28.3909 1.45737 28.4454 1.4843 28.4999C1.51123 28.5543 1.51123 28.6088 1.53815 28.6633C1.56508 28.7178 1.59201 28.7723 1.59201 28.8268C1.61894 28.8813 1.64587 28.9358 1.6728 28.9903C1.69973 29.0448 1.72665 29.0993 1.75358 29.181C1.78051 29.2355 1.80744 29.2627 1.83437 29.3172C1.8613 29.3717 1.91515 29.4262 1.94208 29.508C1.96901 29.5352 1.99594 29.5897 2.02287 29.617C2.07672 29.6714 2.10365 29.7259 2.15751 29.7804L2.18444 29.8077L15.6756 45.6923C16.9951 47.2726 19.3379 47.4361 20.8997 46.101C22.4616 44.7659 22.6232 42.45 21.3037 40.897L13.0636 31.2517H19.0417C19.5264 31.2517 20.038 31.2517 20.5766 31.2517Z" fill="#3FB3B0"/>
</svg>
